<?xml version="1.0" encoding="UTF-8"?>
<svg xmlns="http://www.w3.org/2000/svg" width="114.9" height="127" xmlns:xlink="http://www.w3.org/1999/xlink" viewBox="0 0 114.9 127">
  <defs>
    <style>
      .uuid-4fa44ea9-36f0-4170-86f2-dc566725290c {
        fill: #fff;
      }

      .uuid-f3af929b-ab65-46e4-bcf3-474eef1bb27a {
        fill: #d9dcdb;
      }

      .uuid-3e37f89d-ff40-46b4-949e-b35d026b3fa9 {
        isolation: isolate;
      }

      .uuid-78879980-6ab9-4827-9ac5-6931f520c5f4 {
        fill: url(#uuid-49fb9ad8-6380-4ab2-8265-e11518248b18);
        mix-blend-mode: multiply;
      }

      .uuid-7181ef5a-4cc5-4ece-99d1-c417ea913d3e {
        fill: #f75321;
      }

      .uuid-b4bc36f3-c903-4bad-8ea0-f2e0598ea16b {
        fill: #b3b3b3;
      }
    </style>
    <linearGradient id="uuid-49fb9ad8-6380-4ab2-8265-e11518248b18" data-name="Degradado sin nombre 12" x1="82.5" y1="59.6" x2="42.8" y2="59.6" gradientTransform="matrix(1, 0, 0, 1, 0, 0)" gradientUnits="userSpaceOnUse">
      <stop offset="0" stop-color="#fff"/>
      <stop offset="0" stop-color="#f6f6f6"/>
      <stop offset=".2" stop-color="#dfdfdf"/>
      <stop offset=".4" stop-color="#b9b9b9"/>
      <stop offset=".6" stop-color="#858585"/>
      <stop offset=".8" stop-color="#424242"/>
      <stop offset="1" stop-color="#000"/>
    </linearGradient>
  </defs>
  <g class="uuid-3e37f89d-ff40-46b4-949e-b35d026b3fa9">
    <g id="uuid-a8c816c4-10ed-488f-8ad4-404433be1c9d" data-name="Layer 2">
      <g id="uuid-5ca12fa2-1371-490c-97f2-185bebd86554" data-name="servicios">
        <g>
          <g>
            <path class="uuid-4fa44ea9-36f0-4170-86f2-dc566725290c" d="M81.3,28.8c7.8,15.7,5,34.5-7.1,47.9-4.7,5.2-9.6,10.2-13.3,16.3-2.3,3.8-3.7,7.9-3.6,12.4,0,4.8,0,9.7,0,14.5,0,4.2-1.9,6.2-6.2,6.2-5.7,0-11.5,0-17.2,0-3.7,0-5.6-1.9-5.6-5.6,0-4.1-.2-8.2,0-12.3,.4-7.8-2.3-14.3-7.2-20.1-3.9-4.7-8.1-9.2-11.9-13.9-12.5-15.2-12.3-38.5,.2-53.6C18,10.4,29,5,42.2,4.8c10.6-.2,20.2,3.3,28.4,10.2,3.5,3,6.4,6.4,8.8,10.3-3,2-6.1,3.8-9.2,5.4-8.3-11.5-19.5-16.4-33.4-14-16.7,2.9-28.6,18.4-26.7,36,1.9,17.5,16.8,29.1,31.8,29.2,13.6,.1,23.6-6,30.2-17.6,3.4-6,4.4-12.8,3.4-19.7-.5-3.6-1.4-7.1-3.3-10.3,3-2,6-3.7,9.2-5.4Z"/>
            <path class="uuid-4fa44ea9-36f0-4170-86f2-dc566725290c" d="M62.8,39.7c6.8,15.1-4.1,31.7-20.6,31.4-10.9-.2-20.3-9.1-21.3-19.8-1.3-13.4,9.5-24.8,22.7-24.3,6.7,.3,12.2,3.1,16.5,8.3,.2,.3,.5,.6,.8,.9-2.9,2-6,3.7-9.1,5.4-4.6-5.2-12.2-5.5-17-.7-4.9,4.8-4.6,12.4,.6,17,3.9,3.5,10.1,3.8,14.3,.7,4.7-3.4,6-8.3,4.1-13.5,3-2,6-3.7,9.2-5.4Z"/>
            <path class="uuid-7181ef5a-4cc5-4ece-99d1-c417ea913d3e" d="M53.6,45c1.9,5.2,.7,10-4.1,13.5-4.2,3.1-10.4,2.8-14.3-.7-5.2-4.6-5.4-12.2-.6-17,4.8-4.8,12.4-4.5,17,.7-2.5,1.5-4.9,2.9-7.4,4.4-1.7,1-2.2,2.1-1.5,3.2,.6,1,1.9,1.1,3.4,.3,2.5-1.4,4.9-2.9,7.4-4.3Z"/>
            <polygon class="uuid-78879980-6ab9-4827-9ac5-6931f520c5f4" points="42.8 49.2 80.2 71.8 82.5 68.4 46.1 47.5 42.8 49.2"/>
            <path class="uuid-f3af929b-ab65-46e4-bcf3-474eef1bb27a" d="M81.3,28.8c-3.1,1.7-6.2,3.4-9.2,5.4-3.1,1.8-6.2,3.7-9.4,5.5-3.2,1.6-6.2,3.4-9.2,5.4-2.5,1.4-4.9,2.9-7.4,4.3-1.6,.9-2.8,.8-3.4-.3-.7-1.1-.2-2.2,1.5-3.2,2.5-1.5,4.9-2.9,7.4-4.4,3.1-1.6,6.2-3.4,9.1-5.4,3.2-1.7,6.3-3.5,9.3-5.4,3.2-1.6,6.3-3.4,9.2-5.4,7.3-3.9,14.3-8.2,21.5-12.4,1-.6,1.9-1.1,2.8-.1,1,1,.7,2-.2,3-.7,.4-1.5,.7-2.2,1.1-5.1,3.1-10.3,5.8-15.3,9.1-1.6,.9-3.1,1.9-4.7,2.8Z"/>
            <path class="uuid-b4bc36f3-c903-4bad-8ea0-f2e0598ea16b" d="M86,26c5-3.3,10.2-6,15.3-9.1,.7-.4,1.5-.8,2.2-1.1,3.4,1,6.8,2.1,10.1,3.1,.5,.1,1.1,.1,1.2,.7,0,.5-.6,.6-.9,.8-4.9,2.9-9.9,5.8-14.8,8.6-.5,.3-1,.7-1.7,.5-3.8-1.2-7.6-2.4-11.4-3.6Z"/>
            <polygon class="uuid-b4bc36f3-c903-4bad-8ea0-f2e0598ea16b" points="86.3 9.8 103.5 0 100.8 12.8 83.7 22.9 86.3 9.8"/>
          </g>
          <rect class="uuid-7181ef5a-4cc5-4ece-99d1-c417ea913d3e" x="27.2" y="112" width="32" height="15" rx="3.2" ry="3.2"/>
        </g>
      </g>
    </g>
  </g>
</svg>