<?xml version="1.0" encoding="UTF-8"?>
<svg id="uuid-d6ec9960-fecb-4ef1-94d9-2eef816054ea" data-name="Layer 2" xmlns="http://www.w3.org/2000/svg" width="120.9" height="120" xmlns:xlink="http://www.w3.org/1999/xlink" viewBox="0 0 120.9 120">
  <defs>
    <style>
      .uuid-597620f8-ef7d-462c-89e9-e87c13b85f2c {
        fill: url(#uuid-c0171771-94d9-48c5-ad39-26a515939f06);
      }

      .uuid-1dac2a58-0ce5-458d-8376-12a713759599 {
        fill: #f75321;
      }
    </style>
    <linearGradient id="uuid-c0171771-94d9-48c5-ad39-26a515939f06" data-name="Degradado sin nombre 33" x1="32.2" y1="10.9" x2="81.2" y2="96" gradientTransform="matrix(1, 0, 0, 1, 0, 0)" gradientUnits="userSpaceOnUse">
      <stop offset="0" stop-color="#d2dae1"/>
      <stop offset="1" stop-color="#fff"/>
    </linearGradient>
  </defs>
  <g id="uuid-75f7bdc1-6e71-436c-b909-3268a5e0c060" data-name="servicios">
    <g>
      <polygon class="uuid-1dac2a58-0ce5-458d-8376-12a713759599" points="48.5 60.2 56 54.5 60.3 60.2 81.1 39.7 87.7 46.4 59.3 74.5 48.5 60.2"/>
      <polygon class="uuid-1dac2a58-0ce5-458d-8376-12a713759599" points="49.9 60.4 55.8 55.9 60.2 61.7 81.1 41.1 86.3 46.4 59.4 73 49.9 60.4"/>
      <path class="uuid-597620f8-ef7d-462c-89e9-e87c13b85f2c" d="M111.4,51.5c-.2-1.5-.6-2.9-.9-4.3l7.8-4.9c-.5-1.6-1.1-3.3-1.7-4.8l-9.1,1.1c-1.2-2.7-2.7-5.3-4.3-7.7l5.6-7.3c-1-1.4-2.1-2.7-3.3-4l-8.2,4.1c-2.1-2.1-4.3-4-6.7-5.7l2.8-8.7c-1.4-.9-2.9-1.8-4.4-2.6l-6.3,6.7c-2.6-1.3-5.4-2.3-8.3-3.1l-.4-9.2c-1.7-.4-3.3-.7-5-.9l-3.6,8.4c-2.9-.3-5.8-.3-8.8,0L53,0c-.8,.1-1.7,.2-2.5,.4-.8,.1-1.7,.3-2.5,.5l-.5,9.2c-2.9,.7-5.7,1.7-8.3,2.9l-6.2-6.8c-1.5,.8-3,1.6-4.5,2.5l2.6,8.8c-2.4,1.7-4.7,3.6-6.8,5.6l-8.1-4.3c-1.2,1.3-2.3,2.6-3.3,3.9l5.5,7.4c-1.7,2.4-3.2,4.9-4.5,7.6l-9.1-1.2c-.7,1.6-1.3,3.2-1.8,4.8l7.7,5c-.8,2.8-1.3,5.7-1.6,8.7L0,56.9c0,1.7-.1,3.4,0,5.1l8.9,2.1c.1,1.5,.3,2.9,.5,4.4,.2,1.5,.6,2.9,.9,4.3l-7.8,4.9c.5,1.6,1.1,3.3,1.7,4.8l9.1-1.1c1.2,2.7,2.7,5.3,4.3,7.7l-5.6,7.3c1,1.4,2.1,2.7,3.3,4l8.2-4.1c2.1,2.1,4.3,4,6.7,5.7l-2.8,8.7c1.4,.9,2.9,1.8,4.4,2.6l6.3-6.7c2.6,1.3,5.4,2.3,8.3,3.1l.4,9.2c1.7,.4,3.3,.7,5,.9l3.6-8.4c2.9,.3,5.8,.3,8.8,0l3.5,8.5c.8-.1,1.7-.2,2.5-.4s1.7-.3,2.5-.5l.5-9.2c2.9-.7,5.7-1.7,8.3-2.9l6.2,6.8c1.5-.8,3-1.6,4.5-2.5l-2.6-8.8c2.4-1.7,4.7-3.6,6.8-5.6l8.1,4.3c1.2-1.3,2.3-2.6,3.3-3.9l-5.5-7.4c1.7-2.4,3.2-4.9,4.5-7.6l9.1,1.2c.7-1.6,1.3-3.2,1.8-4.8l-7.7-5c.8-2.8,1.3-5.7,1.6-8.7l9-2c0-1.7,.1-3.4,0-5.1l-8.9-2.1c-.1-1.5-.3-2.9-.5-4.4Zm-44.6,46.2c-20.8,3.5-40.5-10.6-44-31.4-3.5-20.8,10.6-40.5,31.4-44,20.8-3.5,40.5,10.6,44,31.4,3.5,20.8-10.6,40.5-31.4,44Z"/>
    </g>
  </g>
</svg>