<?xml version="1.0" encoding="UTF-8"?>
<svg id="uuid-6df319f9-e18e-431d-b87f-d309985f1449" data-name="Layer 2" xmlns="http://www.w3.org/2000/svg" width="133.7" height="133.6" xmlns:xlink="http://www.w3.org/1999/xlink" viewBox="0 0 133.7 133.6">
  <defs>
    <style>
      .uuid-7805aa81-2904-412c-b06e-8e3ea8239ba5 {
        fill: url(#uuid-b71c03ad-b36c-4fdc-a9d3-ba1af68af963);
      }

      .uuid-6c52c9b5-1eca-42ab-9462-7f3e70fd97d1 {
        fill: url(#uuid-52dae7e3-6e9b-4dba-aa41-b3cb44356108);
      }

      .uuid-f2e8c9be-d27a-4752-bb0e-cbf91f2e24eb {
        fill: url(#uuid-23631d9e-f19a-47f0-ac85-f27b6a0f7d2b);
      }

      .uuid-75eb5c15-77c5-4c90-ac50-d60fbc8e0b24 {
        fill: url(#uuid-0cf170dc-9ce5-42fc-a9a2-839c07d30712);
      }

      .uuid-36f57b38-4d0a-4b6a-b07d-a8c171ccc6c1 {
        fill: url(#uuid-876b4bdf-b860-486f-a599-7e4514720870);
      }

      .uuid-8f996791-c94b-429e-906c-174ad846af43 {
        fill: #f75321;
      }

      .uuid-276c9dd4-45d6-4f51-86aa-b63e65b98894 {
        fill: url(#uuid-9fbae690-65b8-4221-b046-ce16886a6618);
      }

      .uuid-29813001-c6cd-42fa-9d84-ad3b0dc8c8f0 {
        fill: url(#uuid-a24dc781-ff43-44ad-9bed-db2cbba06706);
      }

      .uuid-97a0177c-3a54-401f-8146-acf9cb7f0d08 {
        fill: url(#uuid-cf739cf1-9b63-4866-9660-b47392d497fc);
      }
    </style>
    <linearGradient id="uuid-cf739cf1-9b63-4866-9660-b47392d497fc" data-name="Degradado sin nombre 33" x1="33.8" y1="80" x2="43" y2="80" gradientTransform="matrix(1, 0, 0, 1, 0, 0)" gradientUnits="userSpaceOnUse">
      <stop offset="0" stop-color="#d2dae1"/>
      <stop offset="1" stop-color="#fff"/>
    </linearGradient>
    <linearGradient id="uuid-9fbae690-65b8-4221-b046-ce16886a6618" data-name="Degradado sin nombre 33" x1="11.3" y1="51.9" x2="37.8" y2="51.9" xlink:href="#uuid-cf739cf1-9b63-4866-9660-b47392d497fc"/>
    <linearGradient id="uuid-a24dc781-ff43-44ad-9bed-db2cbba06706" data-name="Degradado sin nombre 33" x1="96.1" y1="49.8" x2="122.6" y2="49.8" xlink:href="#uuid-cf739cf1-9b63-4866-9660-b47392d497fc"/>
    <linearGradient id="uuid-b71c03ad-b36c-4fdc-a9d3-ba1af68af963" data-name="Degradado sin nombre 33" x1="40" y1="85" x2="50.9" y2="85" xlink:href="#uuid-cf739cf1-9b63-4866-9660-b47392d497fc"/>
    <linearGradient id="uuid-23631d9e-f19a-47f0-ac85-f27b6a0f7d2b" data-name="Degradado sin nombre 33" x1="45.9" y1="52.6" x2="105.9" y2="52.6" xlink:href="#uuid-cf739cf1-9b63-4866-9660-b47392d497fc"/>
    <linearGradient id="uuid-0cf170dc-9ce5-42fc-a9a2-839c07d30712" data-name="Degradado sin nombre 33" x1="55.1" y1="95.4" x2="63.5" y2="95.4" xlink:href="#uuid-cf739cf1-9b63-4866-9660-b47392d497fc"/>
    <linearGradient id="uuid-52dae7e3-6e9b-4dba-aa41-b3cb44356108" data-name="Degradado sin nombre 33" x1="28.4" y1="71.3" x2="107" y2="71.3" xlink:href="#uuid-cf739cf1-9b63-4866-9660-b47392d497fc"/>
    <linearGradient id="uuid-876b4bdf-b860-486f-a599-7e4514720870" data-name="Degradado sin nombre 33" x1="47.4" y1="90.5" x2="57.2" y2="90.5" xlink:href="#uuid-cf739cf1-9b63-4866-9660-b47392d497fc"/>
  </defs>
  <g id="uuid-b16b86fe-9934-40b5-b062-f1e491a20c00" data-name="servicios">
    <g>
      <path class="uuid-8f996791-c94b-429e-906c-174ad846af43" d="M133.7,66.7c0,37.3-30,67-67.5,66.9C29.6,133.5,0,103.4,0,66.4,0,29.8,30.2,0,66.9,0c36.9,0,66.8,30.1,66.8,66.7Zm-109.2-4.9c4.2,0,8.4,0,12.6,0,1.5,0,1.9-.5,2-1.9,0-5.9,.7-11.7,1.6-17.5,.2-1.3,0-1.8-1.2-2.3-5.3-2.3-10.1-5.2-14.5-8.9-1.1-.9-1.7-.8-2.5,.3-6.7,8.5-10.6,18.1-12,28.8-.2,1.3,.3,1.5,1.4,1.5,4.2,0,8.4,0,12.6,0Zm84.4,0h0c4.3,0,8.6,0,12.9,0,1.1,0,1.5-.2,1.3-1.4-1.3-10.9-5.4-20.7-12.3-29.2-.6-.8-1-.9-1.9-.2-4.6,3.8-9.7,7-15.3,9.4-.8,.4-1,.8-.9,1.7,1,6,1.6,12.1,1.7,18.2,0,1.4,.6,1.7,1.9,1.7,4.1,0,8.3,0,12.4,0Zm14.3,11.5c.3-1.6-.8-1.3-1.6-1.3-8.2,0-16.4,0-24.7,0-1.7,0-2.3,.4-2.3,2.1,0,3-.4,6-.5,9-.1,2.9-1.2,5.7-1.2,8.6,0,1,.2,1.5,1.1,1.9,5.4,2.3,10.4,5.4,15,9.2,.8,.7,1.3,.7,2-.2,6.9-8.6,11-18.4,12.2-29.2Zm-98.4-1.3c-4.3,0-8.5,0-12.8,0-.9,0-1.6,0-1.5,1.3,1.3,11,5.4,20.8,12.3,29.4,.6,.7,1,.9,1.7,.2,4.7-3.9,9.8-7,15.4-9.5,.7-.3,1-.7,.8-1.5-1-6.1-1.6-12.2-1.8-18.4,0-1.3-.6-1.6-1.7-1.6-4.2,0-8.4,0-12.6,0Zm42-10.1c5.4,0,10.8,0,16.2,0,1.3,0,1.7-.4,1.7-1.7-.2-4.8-.7-9.6-1.2-14.3-.2-1.4-.7-1.8-2.1-1.4-9.6,2.2-19.2,2.2-28.8,0-1.5-.3-1.9,.2-2,1.5-.5,4.6-1,9.3-1.2,14,0,1.6,.3,2.1,1.9,2,5.2-.1,10.4,0,15.6,0Zm.1,10.1c-5.4,0-10.8,0-16.2,0-1.2,0-1.6,.3-1.5,1.5,.2,4.9,.7,9.7,1.3,14.5,.2,1.4,.5,1.8,2,1.4,9.6-2.2,19.3-2.2,28.9,0,1.6,.4,1.9-.2,2-1.5,.6-4.8,1-9.5,1.3-14.3,0-1.4-.4-1.7-1.7-1.7-5.3,0-10.7,0-16,0Zm0,26c-4.3,0-8.6,.5-12.8,1.4-.8,.2-1.4,.3-1.2,1.3,1.9,7,4.2,13.8,8.6,19.6,.6,.8,1.3,1.4,2.1,2,2.3,1.8,4.4,1.7,6.7,0,1.4-1.1,2.4-2.5,3.4-3.9,3.4-5.3,5.4-11.3,7.1-17.4,.3-1-.1-1.3-1.1-1.6-4.2-.9-8.5-1.5-12.8-1.4Zm-.2-62.1c4.3,0,8.6-.4,12.8-1.4,.9-.2,1.6-.4,1.2-1.6-1.5-5.5-3.3-10.9-6.2-15.8-1.1-1.9-2.3-3.8-4.1-5.2-2.5-2.1-4.9-2.1-7.4,0-1.4,1.2-2.5,2.6-3.4,4.2-3.2,5.2-5.2,11-6.8,16.9-.3,1.1,.3,1.3,1.1,1.5,4.2,1,8.4,1.4,12.6,1.4Zm35.7,75.1c0-.6-.5-.9-.9-1.1-3-2.3-6.2-4.3-9.5-6-1-.5-1.5-.3-1.7,.8-1.3,5-3.1,9.9-5.4,14.6-.2,.4-.6,.7-.2,1.1,.4,.6,.9,.2,1.3,0,5.7-2,10.9-4.9,15.7-8.6,.3-.3,.6-.6,.9-.8Zm-53.2,8.9c0-.2-.2-.3-.3-.5-2.4-4.8-4.2-9.8-5.5-14.9-.3-1.1-.8-1.1-1.7-.7-3.4,1.7-6.5,3.7-9.6,6-1.1,.8-.9,1.4,0,2.1,2.7,2,5.4,3.8,8.3,5.3,2.4,1.2,4.8,2.3,7.4,3.2,.6,.2,1.2,.5,1.2-.5Zm0-106c-.3-1-1-.5-1.6-.3-5.7,2-10.9,4.9-15.6,8.6-1,.7-.8,1.2,0,1.9,3,2.2,6.1,4.2,9.4,5.9,1.3,.7,1.7,.4,2.1-1,1.3-4.9,3-9.7,5.3-14.2,.1-.3,.3-.5,.4-.9Zm36-.6c-1,.1-.8,.7-.4,1.3,2.3,4.7,4.1,9.5,5.4,14.6,.3,1.3,.8,1.3,1.9,.8,3.3-1.7,6.4-3.7,9.4-5.9,1.1-.8,1.1-1.3,0-2.1-4.7-3.5-9.7-6.3-15.2-8.3-.3-.1-.7-.2-1.1-.4Z"/>
      <g>
        <path class="uuid-97a0177c-3a54-401f-8146-acf9cb7f0d08" d="M36.7,85.3c-.5,0-1.1-.2-1.5-.5l-.3-.2c-.6-.4-1-1-1.1-1.7-.1-.7,0-1.4,.4-2l3.6-5.1c.5-.7,1.3-1.1,2.2-1.1s1.1,.2,1.5,.5l.3,.2c1.2,.8,1.5,2.5,.6,3.7l-3.6,5.1c-.5,.7-1.3,1.1-2.2,1.1h0Z"/>
        <path class="uuid-276c9dd4-45d6-4f51-86aa-b63e65b98894" d="M36.7,35.2l-9.8-3.8c-.9-.3-1.8,0-2.2,1l-13.3,34.1c-.3,.9,0,1.8,1,2.2l9.8,3.8c.9,.3,1.8,0,2.2-1l13.3-34.1c.3-.9,0-1.8-1-2.2Zm-16.6,30.7c-1.9,0-3.4-1.5-3.4-3.4s1.5-3.4,3.4-3.4,3.4,1.5,3.4,3.4-1.5,3.4-3.4,3.4Z"/>
        <path class="uuid-29813001-c6cd-42fa-9d84-ad3b0dc8c8f0" d="M122.4,64.4l-13.3-34.1c-.3-.9-1.3-1.3-2.2-1l-9.8,3.8c-.9,.3-1.3,1.3-1,2.2l13.3,34.1c.3,.9,1.3,1.3,2.2,1l9.8-3.8c.9-.3,1.3-1.3,1-2.2Zm-8.7-.6c-1.9,0-3.4-1.5-3.4-3.4s1.5-3.4,3.4-3.4,3.4,1.5,3.4,3.4-1.5,3.4-3.4,3.4Z"/>
        <path class="uuid-7805aa81-2904-412c-b06e-8e3ea8239ba5" d="M43.1,91.4c-.6,0-1.3-.2-1.8-.6-.7-.5-1.1-1.2-1.3-2-.1-.8,0-1.6,.5-2.3l4.6-6.6c.6-.8,1.5-1.3,2.6-1.3s1.3,.2,1.8,.6c1.4,1,1.7,2.9,.8,4.3l-4.6,6.6c-.6,.8-1.5,1.3-2.6,1.3h0Z"/>
        <path class="uuid-f2e8c9be-d27a-4752-bb0e-cbf91f2e24eb" d="M103.4,70.2c-1.3-.4-6.6-4.4-11-7.7-2.8-2.1-5.8-4.3-8.3-6.1-6.3-4.5-13.1-7.8-15.7-7.8s-.1,0-.2,0c-1,0-2.3,.9-4,1.9-2.5,1.6-5.9,3.7-10.1,4.5-.9,.1-1.7,.2-2.4,.2h0c-2.5,0-4.5-.8-5.4-2.2-.6-.9-.6-2-.1-3,1.4-3.1,14.5-14.5,19.5-15.1,.2,0,.4,0,.7,0,3.5,0,10.5,2.3,15.1,3.9,3.1,1,4.7,1.6,5.4,1.6s.1,0,.1,0c.6,0,3.1-.7,7.3-1.8l11.5,29.5c-.7,.6-1.5,1.3-2.4,2.2Z"/>
        <path class="uuid-75eb5c15-77c5-4c90-ac50-d60fbc8e0b24" d="M57.7,100.2c-.5,0-1.1-.2-1.5-.5-1.2-.8-1.5-2.5-.6-3.7l3.1-4.4c.5-.7,1.3-1.1,2.2-1.1s1.1,.2,1.5,.5c1.2,.8,1.5,2.5,.6,3.7l-3.1,4.4c-.5,.7-1.3,1.1-2.2,1.1h0Z"/>
        <path class="uuid-6c52c9b5-1eca-42ab-9462-7f3e70fd97d1" d="M73.1,102.4c-1,0-1.9-.3-2.6-.9l-5.9-4.6,.5-.7c1.6-2.3,1.1-5.5-1.2-7.2-.9-.6-1.9-.9-3-.9s-.8,0-1.2,.1c0-.4,0-.8,0-1.1-.3-1.5-1.1-2.8-2.3-3.6-1-.7-2.1-1-3.2-1s-.5,0-.8,0c0-.5,0-1.1,0-1.7-.3-1.5-1.1-2.8-2.3-3.6-.9-.7-2.1-1-3.2-1s-1.6,.2-2.4,.5c-.3-1.3-1-2.5-2.1-3.2l-.3-.2c-.9-.6-1.9-.9-3-.9-1.7,0-3.3,.8-4.2,2.2l-1.7,2.5c-1.8-2.3-4-5.4-5.6-7.9l11.2-28.8c3.2,1.3,5.2,2,6.2,2.1,.2,0,.4,0,.6,0,.9,0,2-.1,3.2-.3h0c-3,2.7-5.4,5.4-6,6.9-.8,1.8-.7,4.2,.3,5.8,1.3,2.1,4.1,3.3,7.5,3.3s1.9,0,2.9-.2c4.8-.8,8.7-3.1,11.3-4.7,1.3-.8,2.6-1.3,3-1.3,1.7,0,8,2.5,14,7.5,6.2,5.1,22.6,15.8,22.7,15.9,1.7,1.4,2.3,3.8,1.2,5.7-.8,1.3-2.2,2.1-3.7,2.1h0c-1,0-1.9-.3-2.7-.9,0,0-11-8.6-13.6-10.7-.2-.2-.6-.3-.9-.3s-.8,.2-1,.5c-.3,.3-.4,.7-.4,1.1,0,.4,.2,.8,.5,1l12.6,10.1c1.8,1.4,2.3,3.9,1.2,5.7-.8,1.3-2.2,2.1-3.7,2.1s-1.9-.3-2.7-.9c0,0-11-8.8-13.5-10.8-.2-.2-.6-.3-.9-.3s-.7,.1-1,.4c-.3,.3-.4,.7-.4,1.1,0,.4,.2,.8,.5,1l11.2,9.4c.9,.8,1.5,1.9,1.5,3.2,0,1.2-.4,2.4-1.3,3.3-.8,.8-1.8,1.2-3,1.2s-2.2-.4-3-1.1l-11.9-9.9c-.2-.2-.6-.3-.9-.3s-.7,.1-1,.4c-.3,.3-.4,.7-.4,1.1,0,.4,.2,.8,.5,1l6.9,5.5c.9,.7,1.4,1.7,1.5,2.8,0,1.1-.3,2.2-1.1,3-.7,.7-1.7,1.1-2.7,1.1Z"/>
        <path class="uuid-36f57b38-4d0a-4b6a-b07d-a8c171ccc6c1" d="M50.5,96.2c-.6,0-1.3-.2-1.8-.6-1.4-1-1.8-3-.8-4.4l3.6-5.1c.6-.8,1.5-1.3,2.6-1.3s1.3,.2,1.8,.6c1.4,1,1.8,3,.8,4.4l-3.6,5.1c-.6,.8-1.5,1.3-2.6,1.3h0Z"/>
      </g>
    </g>
  </g>
</svg>