<?xml version="1.0" encoding="UTF-8"?>
<svg id="uuid-230c4d45-876d-438c-9232-33a224097973" data-name="Layer 2" xmlns="http://www.w3.org/2000/svg" width="130.9" height="135.8" xmlns:xlink="http://www.w3.org/1999/xlink" viewBox="0 0 130.9 135.8">
  <defs>
    <style>
      .uuid-d88a1e87-b287-45a1-8b7a-f80d0713da22 {
        fill: url(#uuid-41e09b46-d7c9-403c-9549-d38c9664ed1c);
      }

      .uuid-f85ddb39-aa2c-406d-823b-073ffd7b6443 {
        fill: #fff;
      }
    </style>
    <linearGradient id="uuid-41e09b46-d7c9-403c-9549-d38c9664ed1c" data-name="Degradado sin nombre 21" x1="1.9" y1="46.2" x2="130.9" y2="46.2" gradientTransform="matrix(1, 0, 0, 1, 0, 0)" gradientUnits="userSpaceOnUse">
      <stop offset="0" stop-color="#ed1c24"/>
      <stop offset=".2" stop-color="#f08f34"/>
      <stop offset=".4" stop-color="#ff0"/>
      <stop offset=".6" stop-color="#00d200"/>
      <stop offset=".8" stop-color="#2f58a3"/>
      <stop offset=".8" stop-color="#5840a9"/>
      <stop offset=".9" stop-color="#792ead"/>
      <stop offset="1" stop-color="#8d23b0"/>
      <stop offset="1" stop-color="#951fb2"/>
    </linearGradient>
  </defs>
  <g id="uuid-8cb73311-6d6b-4568-b08a-02e605cd7702" data-name="secciones">
    <g>
      <path class="uuid-d88a1e87-b287-45a1-8b7a-f80d0713da22" d="M110.5,0H1.9V21.4l52,24.7L1.9,70.9v21.5H130.9v-29c-70.3,46.9-62.5-84.9,0-34.1V0h-20.4Z"/>
      <g>
        <path class="uuid-f85ddb39-aa2c-406d-823b-073ffd7b6443" d="M23.2,108.5c1,1,1.5,2.5,1.5,4.3v8h-4.2v-7.5c0-.9-.2-1.6-.7-2.1-.5-.5-1.1-.7-1.9-.7s-1.5,.2-1.9,.7c-.5,.5-.7,1.2-.7,2.1v7.5h-4.2v-7.5c0-.9-.2-1.6-.7-2.1-.5-.5-1.1-.7-1.9-.7s-1.5,.2-1.9,.7c-.5,.5-.7,1.2-.7,2.1v7.5H1.5v-13.8H5.8v1.7c.4-.6,1-1,1.7-1.4,.7-.3,1.5-.5,2.3-.5s2,.2,2.8,.7c.8,.4,1.5,1.1,1.9,1.9,.5-.8,1.1-1.4,2-1.9,.8-.5,1.7-.7,2.7-.7,1.7,0,3.1,.5,4.1,1.6Z"/>
        <path class="uuid-f85ddb39-aa2c-406d-823b-073ffd7b6443" d="M27.2,110.2c.6-1.1,1.4-1.9,2.4-2.5,1-.6,2.2-.9,3.6-.9s3.2,.5,4.3,1.4c1.2,.9,1.9,2.2,2.3,3.8h-4.5c-.4-1.1-1.1-1.6-2.2-1.6s-1.4,.3-1.9,.9c-.5,.6-.7,1.5-.7,2.6s.2,2,.7,2.6c.5,.6,1.1,.9,1.9,.9s1.8-.5,2.2-1.6h4.5c-.4,1.6-1.1,2.9-2.3,3.8-1.2,.9-2.6,1.4-4.3,1.4s-2.5-.3-3.6-.9c-1-.6-1.9-1.4-2.4-2.5-.6-1.1-.9-2.3-.9-3.8s.3-2.7,.9-3.8Z"/>
        <path class="uuid-f85ddb39-aa2c-406d-823b-073ffd7b6443" d="M42.1,110.2c.5-1.1,1.3-1.9,2.2-2.5,.9-.6,2-.9,3.1-.9s1.7,.2,2.5,.6c.7,.4,1.3,.9,1.8,1.5v-6.4h4.2v18.3h-4.2v-2c-.4,.7-1,1.2-1.7,1.6-.7,.4-1.6,.6-2.6,.6s-2.2-.3-3.1-.9c-.9-.6-1.7-1.4-2.2-2.5-.5-1.1-.8-2.3-.8-3.7s.3-2.7,.8-3.7Zm8.6,1.3c-.6-.6-1.3-.9-2.1-.9s-1.6,.3-2.1,.9c-.6,.6-.9,1.4-.9,2.5s.3,1.9,.9,2.5c.6,.6,1.3,.9,2.1,.9s1.6-.3,2.1-.9c.6-.6,.9-1.4,.9-2.5s-.3-1.9-.9-2.5Z"/>
        <path class="uuid-f85ddb39-aa2c-406d-823b-073ffd7b6443" d="M59.2,105c-.5-.4-.7-1-.7-1.6s.2-1.2,.7-1.6c.5-.4,1.1-.7,1.8-.7s1.3,.2,1.8,.7c.5,.4,.7,1,.7,1.6s-.2,1.2-.7,1.6c-.5,.4-1.1,.7-1.8,.7s-1.3-.2-1.8-.7Zm3.9,2.1v13.8h-4.2v-13.8h4.2Z"/>
        <path class="uuid-f85ddb39-aa2c-406d-823b-073ffd7b6443" d="M68.6,120.5c-.9-.4-1.7-1-2.2-1.7-.5-.7-.8-1.5-.9-2.4h4.2c0,.5,.3,.9,.7,1.2,.4,.3,.9,.4,1.5,.4s.9-.1,1.2-.3c.3-.2,.4-.5,.4-.8s-.2-.7-.6-.9c-.4-.2-1.1-.4-2-.6-1-.2-1.8-.5-2.5-.7-.7-.3-1.2-.7-1.7-1.2-.5-.6-.7-1.3-.7-2.2s.2-1.5,.7-2.2c.4-.6,1.1-1.2,1.9-1.5,.8-.4,1.9-.6,3-.6,1.7,0,3.1,.4,4.1,1.3,1,.9,1.6,2,1.7,3.4h-3.9c0-.5-.3-.9-.6-1.1-.4-.3-.8-.4-1.4-.4s-.9,0-1.1,.3c-.3,.2-.4,.4-.4,.8s.2,.7,.6,.9c.4,.2,1.1,.4,2,.6,1,.3,1.9,.5,2.5,.8,.6,.3,1.2,.7,1.7,1.2s.7,1.3,.8,2.3c0,.8-.2,1.5-.7,2.2-.5,.6-1.1,1.1-2,1.5s-1.8,.5-3,.5-2.3-.2-3.2-.6Z"/>
        <path class="uuid-f85ddb39-aa2c-406d-823b-073ffd7b6443" d="M92.4,115h-9.6c0,.9,.3,1.5,.8,2,.5,.5,1.1,.7,1.8,.7,1.1,0,1.8-.4,2.2-1.3h4.5c-.2,.9-.6,1.7-1.2,2.4-.6,.7-1.4,1.3-2.3,1.7-.9,.4-1.9,.6-3,.6s-2.6-.3-3.6-.9c-1.1-.6-1.9-1.4-2.5-2.5-.6-1.1-.9-2.3-.9-3.8s.3-2.7,.9-3.8c.6-1.1,1.4-1.9,2.5-2.5,1.1-.6,2.3-.9,3.6-.9s2.5,.3,3.6,.8,1.8,1.4,2.4,2.4c.6,1,.9,2.2,.9,3.6s0,.8,0,1.2Zm-4.2-2.3c0-.7-.2-1.3-.7-1.7s-1.1-.6-1.9-.6-1.3,.2-1.8,.6c-.5,.4-.8,1-.9,1.8h5.3Z"/>
        <path class="uuid-f85ddb39-aa2c-406d-823b-073ffd7b6443" d="M106.4,108.5c1,1,1.4,2.5,1.4,4.3v8h-4.2v-7.5c0-.9-.2-1.6-.7-2.1-.5-.5-1.1-.8-1.9-.8s-1.4,.3-1.9,.8c-.5,.5-.7,1.2-.7,2.1v7.5h-4.2v-13.8h4.2v1.8c.4-.6,1-1.1,1.7-1.4,.7-.4,1.5-.5,2.4-.5,1.6,0,2.9,.5,3.9,1.6Z"/>
        <path class="uuid-f85ddb39-aa2c-406d-823b-073ffd7b6443" d="M110.1,105c-.5-.4-.7-1-.7-1.6s.2-1.2,.7-1.6c.5-.4,1.1-.7,1.8-.7s1.3,.2,1.8,.7c.5,.4,.7,1,.7,1.6s-.2,1.2-.7,1.6c-.5,.4-1.1,.7-1.8,.7s-1.3-.2-1.8-.7Zm3.9,2.1v13.8h-4.2v-13.8h4.2Z"/>
        <path class="uuid-f85ddb39-aa2c-406d-823b-073ffd7b6443" d="M118.7,120.2c-1.1-.6-1.9-1.4-2.5-2.5-.6-1.1-.9-2.3-.9-3.8s.3-2.7,.9-3.7c.6-1.1,1.5-1.9,2.6-2.5,1.1-.6,2.3-.9,3.7-.9s2.6,.3,3.7,.9c1.1,.6,1.9,1.4,2.6,2.5,.6,1.1,.9,2.3,.9,3.7s-.3,2.7-1,3.7c-.6,1.1-1.5,1.9-2.6,2.5-1.1,.6-2.3,.9-3.7,.9s-2.6-.3-3.6-.9Zm5.7-3.7c.6-.6,.9-1.4,.9-2.5s-.3-2-.8-2.5c-.6-.6-1.2-.9-2-.9s-1.5,.3-2,.9c-.5,.6-.8,1.4-.8,2.6s.3,2,.8,2.5c.5,.6,1.2,.9,2,.9s1.5-.3,2.1-.9Z"/>
      </g>
    </g>
  </g>
</svg>